<?xml version="1.0" encoding="UTF-8"?>
<!-- Generated by Pixelmator Pro 3.5.11 -->
<svg width="120" height="20" viewBox="0 0 120 20" xmlns="http://www.w3.org/2000/svg">
    <path id="Path" fill="#1a1b1e" stroke="none" d="M 4 0.5 L 116 0.5 C 117.932999 0.5 119.5 2.067003 119.5 4 L 119.5 16 C 119.5 17.932997 117.932999 19.5 116 19.5 L 4 19.5 C 2.067003 19.5 0.5 17.932997 0.5 16 L 0.5 4 C 0.5 2.067003 2.067003 0.5 4 0.5 Z"/>
    <linearGradient id="linearGradient1" x1="0" y1="20" x2="88.9" y2="-43.52" gradientUnits="userSpaceOnUse">
        <stop offset="0" stop-color="#68686f" stop-opacity="1"/>
        <stop offset="1" stop-color="#8e8e93" stop-opacity="1"/>
    </linearGradient>
    <path id="path1" fill="url(#linearGradient1)" stroke="none" d="M 4 0.5 L 116 0.5 C 117.932999 0.5 119.5 2.067003 119.5 4 L 119.5 16 C 119.5 17.932997 117.932999 19.5 116 19.5 L 4 19.5 C 2.067003 19.5 0.5 17.932997 0.5 16 L 0.5 4 C 0.5 2.067003 2.067003 0.5 4 0.5 Z"/>
    <path id="path2" fill="#ffffff" stroke="none" d="M 9.07 13 L 9.07 6.79 L 10.93 6.79 C 12.37 6.79 13.07 7.33 13.07 8.42 C 13.07 8.94 12.91 9.4 12.31 9.64 L 12.31 9.89 C 13.05 10.1 13.27 10.65 13.27 11.29 C 13.27 12.43 12.55 13 11.12 13 Z M 9.98 12.2 L 11.12 12.2 C 11.97 12.2 12.32 11.91 12.32 11.2 C 12.32 10.5 11.96 10.22 11.12 10.22 L 9.98 10.22 Z M 9.98 9.45 L 10.95 9.45 C 11.79 9.45 12.15 9.18 12.15 8.52 C 12.15 7.85 11.8 7.58 10.95 7.58 L 9.98 7.58 Z M 16.67 13.15 C 15.27 13.15 14.61 12.35 14.61 10.7 L 14.61 6.8 L 15.51 6.8 L 15.51 10.63 C 15.51 11.79 15.86 12.27 16.67 12.27 C 17.469999 12.27 17.82 11.79 17.82 10.63 L 17.82 6.79 L 18.719999 6.79 L 18.719999 10.71 C 18.719999 12.35 18.059999 13.14 16.67 13.14 Z M 20.200001 13 L 20.200001 12.17 L 21.780001 12.17 L 21.780001 7.62 L 20.200001 7.62 L 20.200001 6.79 L 24.290001 6.79 L 24.290001 7.62 L 22.700001 7.62 L 22.700001 12.17 L 24.290001 12.17 L 24.290001 13 Z M 26.16 13 L 26.16 6.79 L 27.059999 6.79 L 27.059999 12.17 L 29.92 12.17 L 29.92 13 Z M 32.939999 13 L 32.939999 7.62 L 31.17 7.62 L 31.17 6.79 L 35.619999 6.79 L 35.619999 7.62 L 33.860001 7.62 L 33.860001 13 Z M 42.509998 13 L 41.919998 6.79 L 42.799999 6.79 L 43.200001 12.02 L 43.43 12.05 L 44 8.5 L 45.099998 8.5 L 45.669998 12.05 L 45.919998 12.02 L 46.299999 6.79 L 47.18 6.79 L 46.59 13 L 45.16 13 L 44.68 9.63 L 44.41 9.63 L 43.93 13 L 42.5 13 Z M 48.080002 13 L 48.080002 12.17 L 49.669998 12.17 L 49.669998 7.62 L 48.080002 7.62 L 48.080002 6.79 L 52.169998 6.79 L 52.169998 7.62 L 50.59 7.62 L 50.59 12.17 L 52.169998 12.17 L 52.169998 13 Z M 55.240002 13 L 55.240002 7.62 L 53.48 7.62 L 53.48 6.79 L 57.93 6.79 L 57.93 7.62 L 56.16 7.62 L 56.16 13 Z M 62.439999 13 L 62.439999 10.23 L 60.119999 10.23 L 60.119999 13 L 59.209999 13 L 59.209999 6.79 L 60.110001 6.79 L 60.110001 9.4 L 62.439999 9.4 L 62.439999 6.79 L 63.34 6.79 L 63.34 13 Z M 72.82 13.87 C 72.32 13.41 72.18 12.47 72.379997 11.77 C 72.739998 12.21 73.239998 12.34 73.760002 12.42 C 74.559998 12.54 75.339996 12.5 76.080002 12.13 L 76.330002 11.98 C 76.400002 12.18 76.43 12.38 76.400002 12.59 C 76.339996 13.09 76.089996 13.49 75.690002 13.78 C 75.529999 13.9 75.360001 14 75.190002 14.11 C 74.690002 14.45 74.550003 14.85 74.739998 15.44 L 74.760002 15.5 C 74.514465 15.397137 74.30545 15.222958 74.160004 15 C 74.019997 14.76 73.940002 14.5 73.940002 14.22 C 73.940002 14.09 73.940002 13.95 73.919998 13.82 C 73.879997 13.49 73.720001 13.34 73.43 13.34 C 73.142456 13.319551 72.884903 13.517005 72.830002 13.8 Z M 69.980003 11.65 C 69.980003 11.65 71.449997 10.94 72.93 10.94 L 74.050003 7.49 C 74.089996 7.33 74.209999 7.21 74.349998 7.21 C 74.480003 7.21 74.610001 7.33 74.650002 7.49 L 75.760002 10.94 C 76.789871 10.931163 77.806198 11.174945 78.720001 11.65 L 76.199997 4.83 C 76.129997 4.63 76 4.5 75.839996 4.5 L 72.839996 4.5 C 72.669998 4.5 72.550003 4.63 72.480003 4.83 L 69.970001 11.65 Z M 85.529999 10.66 C 85.529999 11.26 84.779999 11.63 83.730003 11.63 C 83.059998 11.63 82.82 11.46 82.82 11.11 C 82.82 10.74 83.120003 10.56 83.790001 10.56 C 84.400002 10.56 84.93 10.57 85.529999 10.65 Z M 85.529999 9.92 C 85.002853 9.818752 84.466721 9.77184 83.93 9.78 C 81.980003 9.78 81.059998 10.24 81.059998 11.32 C 81.059998 12.43 81.690002 12.86 83.150002 12.86 C 84.379997 12.86 85.209999 12.55 85.519997 11.79 L 85.57 11.79 L 85.550003 12.29 C 85.550003 12.69 85.620003 12.72 85.949997 12.72 L 87.459999 12.72 C 87.379997 12.49 87.330002 11.82 87.330002 11.26 C 87.330002 10.65 87.360001 10.18 87.360001 9.56 C 87.360001 8.3 86.599998 7.49 84.209999 7.49 C 83.190002 7.49 82.050003 7.67 81.18 7.93 C 81.260002 8.27 81.379997 8.97 81.440002 9.43 C 82.276009 9.08174 83.174431 8.908182 84.080002 8.92 C 85.220001 8.92 85.540001 9.18 85.540001 9.71 L 85.540001 9.91 Z M 89.709999 11.01 C 89.510002 11.04 89.220001 11.04 88.93 11.04 C 88.629997 11.04 88.349998 11.04 88.160004 11.01 L 88.150002 11.21 C 88.150002 12.26 88.839996 12.87 91.25 12.87 C 93.519997 12.87 94.25 12.27 94.25 11.21 C 94.25 10.21 93.769997 9.71 91.610001 9.6 C 89.93 9.52 89.790001 9.34 89.790001 9.13 C 89.790001 8.89 90 8.76 91.129997 8.76 C 92.290001 8.76 92.610001 8.92 92.610001 9.26 L 92.610001 9.33 C 93.126396 9.306309 93.643608 9.306309 94.160004 9.33 L 94.160004 9.13 C 94.160004 7.9 93.139999 7.5 91.160004 7.5 C 88.93 7.5 88.169998 8.05 88.169998 9.11 C 88.169998 10.07 88.769997 10.66 90.919998 10.75 C 92.5 10.8 92.669998 10.98 92.669998 11.22 C 92.669998 11.48 92.419998 11.6 91.309998 11.6 C 90.029999 11.6 89.709999 11.42 89.709999 11.06 Z M 96.989998 6.6 C 96.318916 7.177123 95.535904 7.60948 94.690002 7.87 C 94.709999 8.18 94.709999 8.75 94.709999 9.07 L 95.260002 9.07 L 95.239998 10.87 C 95.239998 11.97 95.830002 12.82 97.660004 12.82 C 98.306335 12.820778 98.950592 12.746956 99.580002 12.6 C 99.499725 12.096252 99.442993 11.589035 99.410004 11.08 C 99.029999 11.21 98.550003 11.28 98.019997 11.28 C 97.290001 11.28 96.989998 11.08 96.989998 10.49 L 96.989998 9.1 C 97.940002 9.1 98.889999 9.12 99.440002 9.14 C 99.429703 8.646464 99.439713 8.152713 99.470001 7.66 L 97.019997 7.68 C 97.019997 7.309999 97.040001 6.96 97.050003 6.610001 L 96.989998 6.610001 Z M 101.93 8.81 L 101.949997 7.65 L 100.290001 7.65 C 100.331779 9.343076 100.331779 11.036924 100.290001 12.73 L 102.190002 12.73 C 102.159454 12.037105 102.146118 11.343557 102.150002 10.65 C 102.150002 9.51 102.610001 9.19 103.660004 9.19 C 104.150002 9.19 104.5 9.25 104.800003 9.35 C 104.809998 8.93 104.900002 8.1 104.940002 7.73 C 104.629997 7.63 104.279999 7.58 103.860001 7.58 C 102.959999 7.57 102.300003 7.940001 101.989998 8.82 Z M 110.199997 10.15 C 110.199997 11.06 109.540001 11.49 108.5 11.49 C 107.470001 11.49 106.800003 11.09 106.800003 10.15 C 106.800003 9.21 107.480003 8.86 108.5 8.86 C 109.529999 8.86 110.199997 9.24 110.199997 10.16 Z M 111.93 10.11 C 111.93 8.29 110.510002 7.48 108.5 7.48 C 106.480003 7.48 105.110001 8.29 105.110001 10.11 C 105.110001 11.91 106.389999 12.89 108.489998 12.89 C 110.610001 12.89 111.93 11.92 111.93 10.11 Z"/>
    <linearGradient id="linearGradient2" x1="0" y1="20" x2="88.9" y2="-43.52" gradientUnits="userSpaceOnUse">
        <stop offset="0" stop-color="#68686f" stop-opacity="1"/>
        <stop offset="1" stop-color="#8e8e93" stop-opacity="1"/>
    </linearGradient>
    <path id="path3" fill="none" stroke="url(#linearGradient2)" d="M 4 0.5 L 116 0.5 C 117.932999 0.5 119.5 2.067003 119.5 4 L 119.5 16 C 119.5 17.932997 117.932999 19.5 116 19.5 L 4 19.5 C 2.067003 19.5 0.5 17.932997 0.5 16 L 0.5 4 C 0.5 2.067003 2.067003 0.5 4 0.5 Z"/>
</svg>
