<svg fill="none" height="800" viewBox="0 0 24 24" width="800" xmlns="http://www.w3.org/2000/svg"><g fill="#1c274c"><path d="m22 12c0 5.5228-4.4772 10-10 10-5.52285 0-10-4.4772-10-10 0-5.52285 4.47715-10 10-10 5.5228 0 10 4.47715 10 10z" opacity=".5"/><path d="m16.807 19.0112c-1.3672.9392-3.0229 1.4888-4.807 1.4888s-3.43977-.5497-4.807-1.4889c-.60385-.4148-.86191-1.2049-.51081-1.8479.72782-1.333 2.22754-2.1632 5.31781-2.1632 3.0903 0 4.59.8303 5.3178 2.1632.3511.643.093 1.4332-.5108 1.848z"/><path d="m12 12c1.6569 0 3-1.3431 3-3 0-1.65685-1.3431-3-3-3-1.6568 0-2.99996 1.34315-2.99996 3 0 1.6569 1.34316 3 2.99996 3z"/></g></svg>